<?xml version="1.0" encoding="utf-8"?>
<!-- Generator: Adobe Illustrator 23.0.5, SVG Export Plug-In . SVG Version: 6.00 Build 0)  -->
<svg version="1.1" id="Слой_1" xmlns="http://www.w3.org/2000/svg" xmlns:xlink="http://www.w3.org/1999/xlink" x="0px" y="0px"
	 viewBox="0 0 1360 700" style="enable-background:new 0 0 1360 700;" xml:space="preserve">
<style type="text/css">
	.st0{fill:#002749;filter:url(#Adobe_OpacityMaskFilter);}
	.st1{mask:url(#mask0_1_);}
	.st2{fill:none;stroke:#7DCEF1;stroke-width:2;stroke-opacity:0.13;}
</style>
<defs>
	<filter id="Adobe_OpacityMaskFilter" filterUnits="userSpaceOnUse" x="-262" y="-325" width="1792" height="967">
		<feColorMatrix  type="matrix" values="1 0 0 0 0  0 1 0 0 0  0 0 1 0 0  0 0 0 1 0"/>
	</filter>
</defs>
<mask maskUnits="userSpaceOnUse" x="-262" y="-325" width="1792" height="967" id="mask0_1_">
	<rect class="st0" width="1360" height="700"/>
</mask>
<g class="st1">
	<path class="st2" d="M1228,216.2c-2.2-207-143.1-349.8-330.4-380.1c-23.2-3.6-46.8-6.1-71-6.1c-60.7,0-107.8,10.3-160.1,32.5l0,0
		c-25.7,10.7-59.1,34.6-89,61.4c-14.5,13.2-27.6,30-40.8,48c-2.2,3-4.5,6.1-6.7,9.2c-11.1,15.1-22.5,30.7-35.1,45
		c-30.3,34.6-67.6,62.6-124.7,62l0-1l0,1c-37.2-0.4-61.1-13.2-80.8-29.6c-8.5-7.1-16.3-14.9-24-22.7c-1.2-1.2-2.3-2.4-3.5-3.5
		c-8.9-8.9-17.8-17.5-28-24.9l0,0C188.3-25.9,132.1-45.5,70.7-45.5C-15-45.5-89.2-5.5-141.4,52.6C-178.2,94-203.9,144.9-205,204
		v24.3c1.1,58.7,26.8,109.7,63.9,151.1l0,0c51.9,58.1,126.1,98.1,211.7,98.1c61.4,0,117.6-19.6,162.8-52.8l0,0
		c10.3-7.4,19.2-16,28.1-24.9c1.3-1.3,2.6-2.6,3.8-3.8c7.6-7.6,15.3-15.3,23.7-22.3c19.7-16.4,43.5-29.3,80.7-29.6
		c57-0.5,94.4,27.5,124.7,62.2c12.5,14.3,23.8,29.7,34.9,44.8c2.3,3.2,4.6,6.3,6.9,9.4c13.3,17.9,26.3,34.7,40.8,47.8l-2-0.5
		c0.4,0.4,0.9,0.8,1.3,1.2c29.9,26.8,63.8,50.8,89.3,61.5c52.4,22.2,99.6,32.6,160.5,32.6c24.3,0,48-2.5,71.2-6.1l-0.2-1
		C1084.9,565.9,1225.8,423.2,1228,216.2z"/>
	<path class="st2" d="M826.9,600.4L826.9,600.4c-31.6-13.3-73.9-43.2-111.2-76.7c-18.1-16.4-34.4-37.4-51-59.8
		c-2.9-3.9-5.8-7.8-8.7-11.8c-13.8-18.8-27.9-38-43.5-55.9c-37.8-43.3-84.4-78.2-155.5-77.6c-46.3,0.4-76,16.4-100.6,36.9
		c-10.5,8.8-20,18.4-29.5,27.9c-1.6,1.6-3.2,3.2-4.8,4.8c-11.1,11.1-22.3,21.9-35.2,31.1l0,0c-56.5,41.5-126.8,66-203.5,66
		c-107,0-199.8-49.9-264.6-122.6l0,0c-46.4-51.7-78.5-115.4-79.9-188.9v0v0v0v0v0v0v0v0v0v0v0v0v0v0v0v0v0v0v0v0v0v0v0v0v0v0v0v0v0
		v0v0v0v0v0v0v0v0v0v0v0v0v0v0v0v0v0v0v0v0v0v0v0v0v0v0v0v0v0v0v0v0v0v0v0v0v0v-0.1v0v-0.1v-0.1v0V171V171v-0.1v-0.1v-0.1v-0.1v-0.1
		v-0.1v-0.1v-0.1v-0.1v-0.1v-0.1v-0.1v-0.1v-0.1v-0.1v-0.1v-0.1V170v-0.1v-0.1v-0.1v-0.1v-0.1v-0.1v-0.1v-0.1v-0.1v-0.1v-0.1v-0.1
		v-0.1v-0.1v-0.1v-0.1V169V169v-0.1v-0.1v-0.1v-0.1v-0.1v-0.1v-0.1v-0.1v-0.1v-0.1v-0.1v-0.1v-0.1v-0.1V168V168v-0.1v-0.1v-0.1v-0.1
		v-0.1v-0.1v-0.1v-0.1v-0.1v-0.1v-0.1v-0.1v-0.1v-0.1V167V167v-0.1v-0.1v-0.1v-0.1v-0.1v-0.1v-0.1v-0.1v-0.1v-0.1v-0.1v-0.1v-0.1
		V166V166v-0.1v-0.1v-0.1v-0.1v-0.1v-0.1v-0.1v-0.1v-0.1v-0.1v-0.1v-0.1v-0.1V165v-0.1v-0.1v-0.1v-0.1v-0.1v-0.1v-0.1v-0.1v-0.1
		v-0.1v-0.1v-0.1v-0.1V164v-0.1v-0.1v-0.1v-0.1v-0.1v-0.1v-0.1v-0.1v-0.1v-0.1v-0.1v-0.1v-0.1V163v-0.1v-0.1v-0.1v-0.1v-0.1v-0.1
		v-0.1v-0.1v-0.1v-0.1v-0.1v-0.1v-0.1V162v-0.1v-0.1v-0.1v-0.1v-0.1v-0.1v-0.1v-0.1v-0.1v-0.1v-0.1v-0.1V161V161v-0.1v-0.1v-0.1
		v-0.1v-0.1v-0.1v-0.1v-0.1v-0.1v-0.1v-0.1v-0.1V160v-0.1v-0.1v-0.1v-0.1v-0.1v-0.1v-0.1v-0.1v-0.1v-0.1v-0.1v-0.1V159v-0.1v-0.1
		v-0.1v-0.1v-0.1v-0.1v-0.1v-0.1v-0.1v-0.1v-0.1v-0.1v-0.1V158v-0.1v-0.1v-0.1v-0.1v-0.1v-0.1v-0.1v-0.1v-0.1v-0.1v-0.1v-0.1V157
		v-0.1v-0.1v-0.1v-0.1v-0.1v-0.1v-0.1v-0.1v-0.1v-0.1v-0.1v-0.1V156V156v-0.1v-0.1v-0.1v-0.1v-0.1v-0.1v-0.1v-0.1v-0.1v-0.1v-0.1
		v-0.1V155v-0.1v-0.1v-0.1v-0.1v-0.1v-0.1v-0.1v-0.1v-0.1v-0.1v-0.1v-0.1v-0.1V154v-0.1v-0.1v-0.1v-0.1v-0.1v-0.1v-0.1v-0.1v-0.1
		v-0.1v-0.1v-0.1v-0.1V153v-0.1v-0.1v-0.1v-0.1v-0.1v-0.1v-0.1v-0.1v-0.1v-0.1v-0.1v-0.1v-0.1V152V152v-0.1v-0.1v-0.1v-0.1v-0.1
		v-0.1v-0.1v-0.1v-0.1v-0.1v-0.1v-0.1v-0.1V151V151v-0.1v-0.1v-0.1v-0.1v-0.1v-0.1v-0.1v-0.1v-0.1v-0.1v-0.1v-0.1v-0.1V150V150v-0.1
		v-0.1v-0.1v-0.1v-0.1v-0.1v-0.1v-0.1v-0.1v-0.1v-0.1v-0.1v-0.1v-0.1V149V149v-0.1v-0.1v-0.1v-0.1v-0.1v-0.1v-0.1v-0.1v-0.1v-0.1
		v-0.1v-0.1v-0.1v-0.1v-0.1V148V148v-0.1v-0.1v-0.1v-0.1v-0.1v-0.1v-0.1v-0.1v-0.1v-0.1v-0.1v-0.1v-0.1v-0.1v-0.1v-0.1V147V147v-0.1
		v-0.1v-0.1v-0.1v-0.1v-0.1v-0.1v-0.1v-0.1v-0.1v-0.1v-0.1v-0.1v-0.1v0v-0.1v0v0v0v0v0v0v0v0v0v0v0v0v0v0v0v0v0v0v0v0v0v0v0v0v0v0v0
		v0v0v0v0v0v0v0v0v0v0v0v0v0v0v0v0v0v0v0v0v0v0v0v0v0v0v0v0v0v0v0v0v0v0v0v0v0v0v0c1.4-73.9,33.5-137.6,79.4-189.3
		c65.3-72.7,158.1-122.6,265.1-122.6c76.7,0,147,24.5,203.9,66l0,0c12.7,9.2,23.9,20,35,31.1c1.5,1.5,2.9,2.9,4.4,4.4
		c9.6,9.7,19.3,19.4,30,28.3c24.6,20.5,54.4,36.5,100.8,36.9l0-1C557.7-1.7,608.8-71.5,656-135.9c19.5-26.6,38.3-52.2,59.5-71.5
		l0.7,0.7c0,0,0,0,0,0c37.3-33.5,79.1-63.4,111.2-76.7l0,0c65.3-27.7,124.1-40.6,200-40.6c30.3,0,59.8,3.1,88.8,7.6
		c234,37.9,410.1,216.4,412.8,475.1c-2.8,258.8-178.8,437.2-413.3,474.7c-29,4.5-58.4,7.6-88.8,7.6
		C951.1,641,892.2,628.1,826.9,600.4z"/>
</g>
</svg>
